simulation
nRows=42
nColumns=15
endheader
time  TH_x TH_y TH_z SC_y  SC_z  SC_x  AC_y  AC_z  AC_x  GH_y  GH_z  GH_yy  EL_x  PS_y
0.750000  0.000000  0.000000  0.000000  -43.176990  3.676767  38.214837  51.632661  -12.480336  -21.791319  24.337760  37.243539  -14.129890  17.831814  142.932086
0.750112  0.000000  0.000000  0.000000  -43.176990  3.676767  41.964837  51.050785  -15.409110  -24.204730  24.337760  37.243539  -14.129890  17.831814  142.932086
0.750224  0.000000  0.000000  0.000000  -43.176990  3.676767  45.714837  50.330555  -18.311092  -26.686835  24.337760  37.243539  -14.129890  17.831814  142.932086
0.750336  0.000000  0.000000  0.000000  -43.176990  3.676767  49.464837  49.463154  -21.179922  -29.253119  24.337760  37.243539  -14.129890  17.831814  142.932086
0.750448  0.000000  0.000000  0.000000  -43.176990  3.676767  53.214837  48.437958  -24.008507  -31.920271  24.337760  37.243539  -14.129890  17.831814  142.932086
0.750560  0.000000  0.000000  0.000000  -43.176990  3.676767  56.964837  47.242419  -26.788889  -34.706362  24.337760  37.243539  -14.129890  17.831814  142.932086
0.750672  0.000000  0.000000  0.000000  -43.176990  3.676767  60.714837  45.861993  -29.512050  -37.630981  24.337760  37.243539  -14.129890  17.831814  142.932086
0.750784  0.000000  0.000000  0.000000  -37.333397  -0.364176  -29.285163  41.196199  20.024124  13.006850  20.841956  31.472151  -10.609847  29.791329  137.413661
0.750896  0.000000  0.000000  0.000000  -37.333397  -0.364176  -25.535163  42.148869  17.530259  10.048503  20.841956  31.472151  -10.609847  29.791329  137.413661
0.751009  0.000000  0.000000  0.000000  -37.333397  -0.364176  -21.785163  42.954989  14.993745  7.171091  20.841956  31.472151  -10.609847  29.791329  137.413661
0.751121  0.000000  0.000000  0.000000  -37.333397  -0.364176  -18.035163  43.621058  12.421966  4.361591  20.841956  31.472151  -10.609847  29.791329  137.413661
0.751233  0.000000  0.000000  0.000000  -37.333397  -0.364176  -14.285163  44.152560  9.821820  1.607426  20.841956  31.472151  -10.609847  29.791329  137.413661
0.751345  0.000000  0.000000  0.000000  -37.333397  -0.364176  -10.535163  44.553960  7.199774  -1.103610  20.841956  31.472151  -10.609847  29.791329  137.413661
0.751457  0.000000  0.000000  0.000000  -37.333397  -0.364176  -6.785163  44.828648  4.561966  -3.783382  20.841956  31.472151  -10.609847  29.791329  137.413661
0.751569  0.000000  0.000000  0.000000  -37.333397  -0.364176  -3.035163  44.978983  1.914294  -6.443490  20.841956  31.472151  -10.609847  29.791329  137.413661
0.751681  0.000000  0.000000  0.000000  -37.333397  -0.364176  0.714837  45.006224  -0.737488  -9.095386  20.841956  31.472151  -10.609847  29.791329  137.413661
0.751793  0.000000  0.000000  0.000000  -37.333397  -0.364176  4.464837  44.910622  -3.387687  -11.750443  20.841956  31.472151  -10.609847  29.791329  137.413661
0.751905  0.000000  0.000000  0.000000  -37.333397  -0.364176  8.214837  44.691356  -6.030591  -14.420066  20.841956  31.472151  -10.609847  29.791329  137.413661
0.752017  0.000000  0.000000  0.000000  -37.333397  -0.364176  11.964837  44.346548  -8.660372  -17.115781  20.841956  31.472151  -10.609847  29.791329  137.413661
0.752129  0.000000  0.000000  0.000000  -37.333397  -0.364176  15.714837  43.873278  -11.271016  -19.849319  20.841956  31.472151  -10.609847  29.791329  137.413661
0.752241  0.000000  0.000000  0.000000  -37.333397  -0.364176  19.464837  43.267553  -13.856208  -22.632730  20.841956  31.472151  -10.609847  29.791329  137.413661
0.752353  0.000000  0.000000  0.000000  -37.333397  -0.364176  23.214837  42.524342  -16.409265  -25.478418  20.841956  31.472151  -10.609847  29.791329  137.413661
0.752465  0.000000  0.000000  0.000000  -37.333397  -0.364176  26.964837  41.637581  -18.923003  -28.399208  20.841956  31.472151  -10.609847  29.791329  137.413661
0.752577  0.000000  0.000000  0.000000  -37.333397  -0.364176  30.714837  40.600226  -21.389704  -31.408363  20.841956  31.472151  -10.609847  29.791329  137.413661
0.752689  0.000000  0.000000  0.000000  -37.333397  -0.364176  34.464837  39.404317  -23.800898  -34.519597  20.841956  31.472151  -10.609847  29.791329  137.413661
0.752801  0.000000  0.000000  0.000000  -37.333397  -0.364176  38.214837  38.041137  -26.147395  -37.746900  20.841956  31.472151  -10.609847  29.791329  137.413661
0.752913  0.000000  0.000000  0.000000  -37.333397  -0.364176  41.964837  36.501400  -28.419079  -41.104497  20.841956  31.472151  -10.609847  29.791329  137.413661
0.753026  0.000000  0.000000  0.000000  -37.333397  -0.364176  45.714837  34.775601  -30.604847  -44.606444  20.841956  31.472151  -10.609847  29.791329  137.413661
0.753138  0.000000  0.000000  0.000000  -37.333397  -0.364176  49.464837  32.854413  -32.692579  -48.266363  20.841956  31.472151  -10.609847  29.791329  137.413661
0.753250  0.000000  0.000000  0.000000  -37.333397  -0.364176  53.214837  30.729360  -34.669064  -52.096728  20.841956  31.472151  -10.609847  29.791329  137.413661
0.753362  0.000000  0.000000  0.000000  -37.333397  -0.364176  56.964837  28.393575  -36.520034  -56.108181  20.841956  31.472151  -10.609847  29.791329  137.413661
0.753474  0.000000  0.000000  0.000000  -37.333397  -0.364176  60.714837  25.842840  -38.230295  -60.308508  20.841956  31.472151  -10.609847  29.791329  137.413661
0.753586  0.000000  0.000000  0.000000  -33.929223  6.540046  -29.285163  50.102074  32.632086  20.731772  33.182751  35.815163  -1.014824  27.337809  128.494590
0.753698  0.000000  0.000000  0.000000  -33.929223  6.540046  -25.535163  51.536202  29.724611  17.962887  33.182751  35.815163  -1.014824  27.337809  128.494590
0.753810  0.000000  0.000000  0.000000  -33.929223  6.540046  -21.785163  52.772584  26.762791  15.351426  33.182751  35.815163  -1.014824  27.337809  128.494590
0.753922  0.000000  0.000000  0.000000  -33.929223  6.540046  -18.035163  53.830347  23.755562  12.873734  33.182751  35.815163  -1.014824  27.337809  128.494590
0.754034  0.000000  0.000000  0.000000  -33.929223  6.540046  -14.285163  54.725638  20.710624  10.508689  33.182751  35.815163  -1.014824  27.337809  128.494590
0.754146  0.000000  0.000000  0.000000  -33.929223  6.540046  -10.535163  55.471951  17.634677  8.237331  33.182751  35.815163  -1.014824  27.337809  128.494590
0.754258  0.000000  0.000000  0.000000  -33.929223  6.540046  -6.785163  56.080303  14.533610  6.042560  33.182751  35.815163  -1.014824  27.337809  128.494590
0.754370  0.000000  0.000000  0.000000  -33.929223  6.540046  -3.035163  56.559559  11.412689  3.908764  33.182751  35.815163  -1.014824  27.337809  128.494590
0.754482  0.000000  0.000000  0.000000  -33.929223  6.540046  0.714837  56.916602  8.276692  1.821533  33.182751  35.815163  -1.014824  27.337809  128.494590
0.754594  0.000000  0.000000  0.000000  -33.929223  6.540046  4.464837  57.156505  5.130030  -0.232642  33.182751  35.815163  -1.014824  27.337809  128.494590
